<?xml version="1.0" encoding="utf-8"?>
<!-- Generator: Adobe Illustrator 17.0.0, SVG Export Plug-In . SVG Version: 6.00 Build 0)  -->
<!DOCTYPE svg PUBLIC "-//W3C//DTD SVG 1.1//EN" "http://www.w3.org/Graphics/SVG/1.1/DTD/svg11.dtd">
<svg version="1.1" id="图层_1" xmlns="http://www.w3.org/2000/svg" xmlns:xlink="http://www.w3.org/1999/xlink" x="0px" y="0px"
	 width="74px" height="401.98px" viewBox="0 502.593 74 401.98" enable-background="new 0 502.593 74 401.98" xml:space="preserve">
<g>
	<path fill="#999999" d="M45.139,553.614c-0.983,0-1.779,0.796-1.779,1.779v6.999c0,0.983,0.796,1.779,1.779,1.779
		c0.982,0,1.779-0.796,1.779-1.779v-6.999C46.918,554.411,46.122,553.614,45.139,553.614L45.139,553.614z M45.139,553.614"/>
	<path fill="#999999" d="M25.856,553.614c-0.982,0-1.779,0.796-1.779,1.779v6.999c0,0.983,0.796,1.779,1.779,1.779
		c0.983,0,1.779-0.796,1.779-1.779v-6.999C27.635,554.411,26.839,553.614,25.856,553.614L25.856,553.614z M25.856,553.614"/>
	<path fill="#999999" d="M42.315,553.845h-13.54c-0.38,0-0.689,0.308-0.689,0.688v10.06c0,1.014,0.822,1.836,1.836,1.836h1.137
		v3.672c0,0.951,0.771,1.721,1.721,1.721c0.951,0,1.721-0.771,1.721-1.721v-3.672h2.066v3.672c0,0.951,0.771,1.721,1.721,1.721
		c0.951,0,1.721-0.771,1.721-1.721v-3.672h1.156c1.014,0,1.836-0.822,1.836-1.836v-10.06
		C43.004,554.153,42.695,553.845,42.315,553.845L42.315,553.845z M42.315,553.845"/>
	<path fill="#999999" d="M39.253,547.452l1.045-1.81c0.095-0.165,0.039-0.375-0.126-0.47c-0.165-0.095-0.375-0.039-0.47,0.126
		l-1.078,1.868c-0.938-0.378-1.981-0.589-3.079-0.589c-1.13,0-2.2,0.223-3.159,0.622l-1.097-1.9
		c-0.095-0.165-0.306-0.221-0.47-0.126c-0.165,0.095-0.221,0.306-0.126,0.47l1.068,1.849c-2.139,1.121-3.589,3.164-3.651,5.511
		c0,0.325,0.263,0.588,0.588,0.588h13.719c0.325,0,0.588-0.263,0.588-0.588c0-0.065-0.011-0.128-0.031-0.187
		C42.839,550.52,41.377,548.535,39.253,547.452L39.253,547.452z M39.253,547.452"/>
</g>
<g>
	<path fill="#999999" d="M35.498,618.202c-6.796,0-12.308,5.51-12.308,12.308c0,6.796,5.51,12.308,12.308,12.308
		c6.799,0,12.308-5.51,12.308-12.308C47.803,623.711,42.294,618.202,35.498,618.202L35.498,618.202z M35.498,640.354
		c-5.438,0-9.846-4.408-9.846-9.846c0-5.438,4.408-9.846,9.846-9.846c5.438,0,9.846,4.408,9.846,9.846
		C45.344,635.946,40.936,640.354,35.498,640.354L35.498,640.354z M35.498,640.354"/>
	<path fill="#999999" d="M40.94,627.1h-8.481l0.142,1.997h8.056l-0.567,6.523l-4.666,1.198l-4.521-1.198l-0.283-3.329h2.265
		l0.142,1.597l2.404,0.665l2.545-0.665l0.142-2.661H30.48l-0.567-6.258h11.166L40.94,627.1L40.94,627.1z M40.94,627.1"/>
</g>
<path fill="#999999" d="M35.069,664.998c-1.286-0.875-2.76-1.432-4.303-1.628c-1.746,0.103-3.458,0.531-5.048,1.262l2.36-8.833
	c1.532-0.884,3.28-1.321,5.047-1.262c1.552,0.034,3.049,0.585,4.253,1.565L35.069,664.998z M32.217,675.573
	c-1.287-0.855-2.756-1.395-4.29-1.577c-1.746,0.103-3.458,0.531-5.048,1.262l2.36-8.833c1.532-0.884,3.28-1.321,5.048-1.262
	c1.565,0.026,3.076,0.577,4.29,1.565L32.217,675.573z M35.864,667.812c1.27,0.988,2.774,1.632,4.366,1.868
	c1.73-0.069,3.436-0.427,5.047-1.06l-2.36,8.833c-1.565,0.776-3.302,1.141-5.048,1.06c-1.619-0.067-3.158-0.722-4.328-1.842
	L35.864,667.812z M38.703,657.162c1.264,1.003,2.77,1.656,4.366,1.893c1.746-0.103,3.458-0.531,5.048-1.262l-2.36,8.833
	c-1.532,0.884-3.28,1.321-5.048,1.262c-1.628-0.072-3.17-0.746-4.328-1.893L38.703,657.162z M38.703,657.162"/>
<g>
	<path fill="#999999" d="M35.354,703.568c-1.352-1.355-2.913-2.536-3.632-4.419c-0.338-0.884-0.348-1.792,0.316-2.477
		c1.093-1.13,2.291-2.158,3.452-3.221c0.501-0.459,1.047-0.872,1.53-1.349c1.348-1.333,1.975-2.912,1.54-4.838
		c0.817,0.868,0.945,1.904,0.695,2.983c-0.426,1.843-1.664,3.145-3.035,4.344c-0.66,0.577-1.357,1.122-1.951,1.762
		c-1.376,1.484-1.472,2.951-0.373,4.653c0.529,0.82,1.075,1.628,1.614,2.441C35.458,703.487,35.406,703.527,35.354,703.568
		L35.354,703.568z"/>
	<path fill="#999999" d="M44.912,712.986c0.551,0.458-0.313,1.75-3.612,2.199c-17.822,1.832-16.911-0.308-16.936-0.764
		c-0.073-1.304,3.301-1.928,4.661-1.712c-0.906,0.35-3.396,1.877,0.056,1.999c2.477,0.13,4.962,0.307,7.436,0.219
		C38.852,714.845,44.889,713.92,44.912,712.986L44.912,712.986z"/>
	<path fill="#999999" d="M42.182,693.363c-0.97,0.648-1.835,1.176-2.642,1.783c-0.591,0.444-1.162,0.943-1.64,1.504
		c-0.773,0.908-0.772,1.604-0.132,2.626c0.255,0.408,0.52,0.811,0.806,1.198c0.601,0.813,0.581,1.679,0.037,2.449
		c-0.448,0.633-1.08,1.136-1.734,1.802c-0.028-0.272-0.051-0.322-0.034-0.35c0.849-1.385,0.828-1.719-0.19-3.049
		c-1.257-1.641-1.482-3.098-0.523-4.471c0.452-0.647,1.069-1.262,1.749-1.647c1.23-0.695,2.562-1.208,3.855-1.79
		C41.821,693.38,41.932,693.392,42.182,693.363L42.182,693.363z"/>
	<path fill="#999999" d="M40.297,711.884c-7.347,2.166-10.2-0.452-10.2-0.452l0.955-0.831c0.369,0.265,2.308,1.493,6.468,0.613
		L40.297,711.884z"/>
	<path fill="#999999" d="M31.81,703.781c0,0-4.598,1.653,0.323,1.768c0.672,0.016,9.646-0.683,9.646-0.683s-5.79,1.651-10.967,1.507
		C23.88,705.681,31.805,703.776,31.81,703.781L31.81,703.781z"/>
	<path fill="#999999" d="M30.739,707.107c0,0-0.678,1.313,1.28,1.362c4.659,0.117,8.062-0.706,8.062-0.706s0.716,0.919,0.716,1.013
		c0,0-6.241,1.443-9.801,0.535C28.721,708.731,30.225,707.364,30.739,707.107L30.739,707.107z"/>
	<path fill="#999999" d="M46.573,714.737c-11.858,3.419-17.851,1.796-17.851,1.796s2.546,2.147,8.926,0.916
		C40.015,716.991,44.252,715.738,46.573,714.737L46.573,714.737z"/>
	<path fill="#999999" d="M41.847,709.293c0.54-0.35,1.042-0.609,1.462-0.965c0.596-0.505,1.201-1.029,1.671-1.645
		c0.444-0.582,0.507-1.309,0.076-1.978c-0.438-0.68-2.249-0.735-2.493-0.772c0.116-0.093,0.349-0.266,0.349-0.266
		s0.89-0.234,2.053-0.091c1.608,0.352,2.161,2.071,1.179,3.408C45.336,708.086,43.299,709.204,41.847,709.293L41.847,709.293z"/>
	<path fill="#999999" d="M41.847,709.293"/>
</g>
<g>
	<path fill="#999999" d="M35.482,784.882c-0.343,0-0.686-0.093-0.989-0.273l-3.15-1.929c-0.471-0.271-0.239-0.369-0.086-0.425
		c0.628-0.225,0.815-0.336,1.483-0.73c0.072-0.04,0.163-0.025,0.235,0.019l2.361,1.397c0.088,0.051,0.212,0.051,0.293,0l9.227-5.484
		c0.088-0.052,0.144-0.157,0.144-0.264v-11.106c0-0.11-0.056-0.214-0.146-0.269l-9.222-5.629c-0.088-0.053-0.203-0.053-0.291,0
		l-9.217,5.631c-0.092,0.054-0.15,0.16-0.15,0.267v11.106c0,0.108,0.058,0.209,0.147,0.261l2.374,1.425
		c1.404,0.725,2.235-0.01,2.235-0.869v-10.922c0-0.158,0.122-0.281,0.273-0.281h1.356c0.149,0,0.273,0.123,0.273,0.281v10.922
		c0,1.936-1.151,3.047-2.925,3.047c-0.544,0-0.975,0-2.173-0.611l-2.472-1.473c-0.612-0.366-0.991-1.049-0.991-1.781v-11.264
		c0-0.732,0.379-1.414,0.991-1.779l9.434-5.64c0.596-0.35,1.39-0.35,1.982,0l9.432,5.64c0.612,0.365,0.991,1.048,0.991,1.779v11.264
		c0,0.732-0.379,1.412-0.991,1.781l-9.432,5.635c-0.303,0.18-0.644,0.273-0.993,0.273L35.482,784.882z"/>
	<path d="M35.482,784.882"/>
	<rect x="24.076" y="758.243" fill="none" width="22.848" height="26.674"/>
	<path fill="#999999" d="M38.396,777.271c-3.841,0-4.995-1.879-4.995-3.524c0-0.156,0.122-0.281,0.271-0.281h1.22
		c0.136,0,0.251,0.101,0.271,0.239c0.183,1.284,0.996,1.852,3.23,1.852c1.986,0,2.8-0.615,2.8-1.705c0-0.63-0.206-1.095-3.294-1.409
		c-2.582-0.264-4.179-0.855-4.179-2.99c0-1.97,1.605-3.121,4.295-3.121c2.742,0,4.546,0.832,4.707,3.022
		c0.006,0.08-0.022,0.156-0.074,0.217c-0.052,0.057-0.124,0.091-0.199,0.091h-1.224c-0.128,0-0.239-0.093-0.265-0.221
		c-0.262-1.008-1.009-1.391-2.947-1.391c-2.169,0-2.423,0.758-2.423,1.344c0,0.711,0.299,0.918,3.228,1.318
		c2.899,0.396,4.277,0.958,4.277,3.065c0,2.127-1.713,3.495-4.701,3.495H38.396z M38.396,777.271"/>
</g>
<g>
	<path fill="#999999" d="M31.483,810.146c0.245-0.044,0.493-0.067,0.741-0.067l-0.2-0.001h6.645c0.288,0,0.564-0.04,0.826-0.112
		c1.24-0.343,2.134-1.443,2.134-2.795v-5.583c0-1.589-1.354-2.783-2.963-3.047c-1.02-0.168-2.513-0.245-3.526-0.24
		c-1.013,0.006-1.983,0.09-2.834,0.24c-2.509,0.437-2.966,1.355-2.966,3.047v1.833h6.144v1.024h-8.14
		c-2.28,0-4.131,2.725-4.148,6.096c0,0.016,0,0.032,0,0.048c0,0.61,0.06,1.198,0.172,1.754c0.51,2.539,2.097,4.391,3.977,4.391
		h0.972v-2.94C28.317,812.078,29.607,810.484,31.483,810.146L31.483,810.146z M32.135,802.334c-0.614,0-1.113-0.498-1.113-1.114
		c0-0.618,0.498-1.121,1.113-1.121c0.613,0,1.114,0.503,1.114,1.121C33.249,801.836,32.749,802.334,32.135,802.334L32.135,802.334z
		 M32.135,802.334"/>
	<path fill="#999999" d="M47.516,808.449c-0.587-2.338-2.107-4.003-3.89-4.003h-0.972v2.603c0,2.171-1.426,3.743-3.167,4.012
		c-0.176,0.027-0.353,0.041-0.531,0.041h-6.648c-0.282,0-0.563,0.036-0.835,0.107c-1.224,0.321-2.131,1.34-2.131,2.66v5.583
		c0,1.59,1.599,2.523,3.167,2.98c1.877,0.546,3.921,0.644,6.168,0c1.491-0.426,2.954-1.288,2.954-2.98v-1.694h-6.145v-1.024h8.14
		c1.615,0,3.015-1.367,3.7-3.363c0.287-0.835,0.448-1.78,0.448-2.781C47.775,809.837,47.683,809.116,47.516,808.449L47.516,808.449z
		 M38.806,818.708c0.614,0,1.112,0.498,1.112,1.114c0,0.618-0.499,1.121-1.112,1.121c-0.613,0-1.114-0.504-1.114-1.121
		C37.692,819.205,38.192,818.708,38.806,818.708L38.806,818.708z M38.806,818.708"/>
	<rect x="23.201" y="798.282" fill="none" width="24.597" height="24.636"/>
</g>
<g>
	<path fill="#999999" d="M30.077,843.281c-0.737-0.832-1.872-1.229-3.441-1.229h-5.218l-2.42,12.439h2.722l0.643-3.308h2.325
		c1.021,0,1.853-0.113,2.514-0.321c0.662-0.227,1.266-0.586,1.815-1.096c0.454-0.416,0.813-0.87,1.096-1.38
		c0.284-0.492,0.492-1.059,0.586-1.664C31.004,845.248,30.796,844.094,30.077,843.281z M27.922,846.533
		c-0.189,1.002-0.548,1.645-1.096,2.06c-0.529,0.416-1.342,0.624-2.439,0.624h-1.645L23.744,844h1.872
		c1.021,0,1.72,0.189,2.06,0.586C28.017,844.964,28.092,845.645,27.922,846.533z"/>
	<path fill="#999999" d="M32.705,838.745l-2.42,12.439h2.684l1.399-7.127h2.155c0.68,0,1.134,0.113,1.342,0.34
		c0.208,0.227,0.246,0.643,0.132,1.248l-1.077,5.539h2.741l1.115-5.804c0.246-1.172,0.057-2.023-0.511-2.571
		c-0.567-0.511-1.607-0.756-3.119-0.756h-2.401l0.681-3.308H32.705"/>
	<path fill="#999999" d="M51.231,843.281c-0.68-0.832-1.871-1.229-3.44-1.229h-5.199l-2.439,12.439h2.722l0.643-3.308h2.306
		c1.04,0,1.89-0.113,2.552-0.321c0.662-0.227,1.229-0.586,1.796-1.096c0.454-0.416,0.832-0.87,1.096-1.38
		c0.284-0.492,0.492-1.059,0.605-1.664C52.157,845.248,51.95,844.094,51.231,843.281z M49.076,846.533
		c-0.189,1.002-0.548,1.645-1.078,2.06c-0.548,0.416-1.361,0.624-2.457,0.624h-1.607L44.879,844h1.89c1.04,0,1.72,0.189,2.061,0.586
		C49.171,844.964,49.246,845.645,49.076,846.533z"/>
</g>
<g>
	<path fill="#999999" d="M18.088,744.041c0-0.815,0.567-1.418,1.329-1.418c0.78,0,1.312,0.585,1.312,1.418
		c0,0.815-0.514,1.4-1.329,1.4C18.585,745.441,18.088,744.82,18.088,744.041z"/>
	<path fill="#999999" d="M32.531,745.246h-2.073l-3.562-6.344c-0.815-1.472-1.63-3.066-2.251-4.591l-0.071,0.018
		c0.106,1.719,0.142,3.474,0.142,5.848v5.069H22.82v-13.558h2.233l3.544,6.274c0.851,1.489,1.613,3.048,2.198,4.483l0.053-0.017
		c-0.159-1.843-0.212-3.58-0.212-5.742v-4.998h1.896V745.246z"/>
	<path fill="#999999" d="M42.754,745.246h-7.39v-13.558h7.089v1.719H37.42v3.917h4.749v1.702H37.42v4.502h5.334V745.246z"/>
	<path fill="#999999" d="M52.907,733.442h-3.668v11.804h-2.056v-11.804h-3.651v-1.755h9.375V733.442z"/>
</g>
<path fill="#999999" d="M43.103,595.33c-0.035-3.381,2.879-5.002,3.01-5.085c-1.638-2.292-4.188-2.607-5.096-2.643
	c-2.17-0.211-4.235,1.224-5.336,1.224c-1.098,0-2.797-1.193-4.597-1.162c-2.37,0.045-4.55,1.31-5.764,3.346
	c-2.457,4.084-0.629,10.135,1.766,13.451c1.17,1.62,2.567,3.443,4.398,3.377c1.766-0.067,2.432-1.094,4.564-1.094
	c2.135,0,2.733,1.094,4.601,1.06c1.898-0.032,3.102-1.651,4.263-3.277c1.345-1.882,1.898-3.705,1.931-3.797
	c-0.043-0.02-3.702-1.361-3.74-5.4V595.33z M39.595,585.408c0.973-1.129,1.63-2.699,1.451-4.262
	c-1.401,0.053-3.098,0.891-4.104,2.021c-0.901,1.001-1.69,2.596-1.48,4.131C37.026,587.414,38.622,586.537,39.595,585.408
	L39.595,585.408z M39.595,585.408"/>
</svg>
