<?xml version="1.0" standalone="no"?><!DOCTYPE svg PUBLIC "-//W3C//DTD SVG 1.1//EN" "http://www.w3.org/Graphics/SVG/1.1/DTD/svg11.dtd"><svg t="1528984906701" class="icon" style="" viewBox="0 0 1024 1024" version="1.1" xmlns="http://www.w3.org/2000/svg" p-id="1703" xmlns:xlink="http://www.w3.org/1999/xlink" width="200" height="200"><defs><style type="text/css"></style></defs><path d="M934.901 530.614c-0.929-6.602-7.349-31.732-9.508-37.534-65.547-176.275-198.124-205.763-300.035-202.195-39.607 1.388-76.876 13.68-106.602 27.284 146.25 4.273 263.52 124.090 263.52 271.372 0 149.98-121.595 271.572-271.578 271.572-149.985 0-271.572-121.593-271.572-271.572 0-33.364 6.043-65.298 17.047-94.822l-0.069-2.001c93.263-239.979 467.275-363.178 566.341-368.125 55.812-2.787 43.062-35.723 43.062-35.723-32.802-113.388-134.546-84.795-134.546-84.795-385.085 140.096-635.87-1.154-635.87-1.154s17.053 158.783 187.937 212.945l-2.685 7.698c0 0-16.196 12.427-32.98 26.113l-0.006-0.17c-103.198 78.27-165.412 202.192-165.412 341.701 0 236.717 191.9 428.618 428.62 428.618 236.715 0 428.615-191.9 428.615-428.618 0.002-20.567-1.466-40.795-4.276-60.591v0z" fill="#d81e06" p-id="1704"></path><path d="M516.3 717.634l111.987-109.373c9.996-9.972 9.982-26.157 0-36.171l-99.485-99.643c-9.983-10.006-26.182-10.032-36.159-0.069l-117.15 111.022 140.807 134.234z" fill="#d81e06" p-id="1705"></path></svg>