<?xml version="1.0" standalone="no"?><!DOCTYPE svg PUBLIC "-//W3C//DTD SVG 1.1//EN" "http://www.w3.org/Graphics/SVG/1.1/DTD/svg11.dtd"><svg class="icon" width="30px" height="30.00px" viewBox="0 0 1024 1024" version="1.1" xmlns="http://www.w3.org/2000/svg"><path d="M860.672 609.792v88.064c0 16.896-7.68 31.744-19.456 41.984h174.592v-129.536h-155.136z" fill="#FFA000" /><path d="M477.696 587.264a87.552 87.04 90 1 0 174.08 0 87.552 87.04 90 1 0-174.08 0Z" fill="#FF6000" /><path d="M601.088 587.264a87.552 87.04 90 1 0 174.08 0 87.552 87.04 90 1 0-174.08 0Z" fill="#FF8900" /><path d="M8.192 284.672h851.456v129.536H8.192z" fill="#FFA000" /><path d="M960.512 262.656h-91.648v-20.992c0-40.448-32.768-73.728-73.728-73.728h-721.92C32.768 168.448 0 201.216 0 241.664v445.44c0 40.448 32.768 73.728 73.728 73.728h81.408v31.232c0 34.816 28.672 63.488 63.488 63.488h741.888c34.816 0 63.488-28.672 63.488-63.488v-465.92c0-34.816-28.672-63.488-63.488-63.488z m-944.128 424.96v-445.44c0-31.744 25.6-57.344 57.344-57.344h721.92c31.744 0 57.344 25.6 57.344 57.344v445.44c0 31.744-25.6 57.344-57.344 57.344h-721.92c-31.744 0-57.344-25.6-57.344-57.344z m991.232 104.448c0 26.112-20.992 47.104-47.104 47.104H218.624c-26.112 0-47.104-20.992-47.104-47.104v-31.232h624.128c40.448 0 73.728-32.768 73.728-73.728V279.04h91.648c26.112 0 47.104 20.992 47.104 47.104v465.92z" fill="#FF6000" /></svg>