<?xml version="1.0" standalone="no"?><!DOCTYPE svg PUBLIC "-//W3C//DTD SVG 1.1//EN" "http://www.w3.org/Graphics/SVG/1.1/DTD/svg11.dtd"><svg class="icon" width="30px" height="30.00px" viewBox="0 0 1024 1024" version="1.1" xmlns="http://www.w3.org/2000/svg"><path d="M461.579145 517.988388 461.579145 401.26599 23.724843 401.26599l0 116.723422 0 0.303922 186.0473 0 0 111.518886c0 20.621667-3.63376 30.873148-10.711969 37.07336-7.157004 6.235005-18.096147 9.525957-32.56058 9.792017l0 34.777061c37.56864-1.187035 65.077158-9.295714 82.598206-24.485671 17.369599-15.108093 26.169009-38.369889 26.169009-69.472258l0-99.202373 186.312336 0L461.579145 517.988388zM398.453433 481.872842 86.848509 481.872842l0-44.186362 311.604924 0L398.453433 481.872842z" fill="#e31d02" /><path d="M275.534915 312.775586 209.771119 312.775586 209.771119 340.245218 7.811408 340.245218 7.811408 376.665709 477.530442 376.665709 477.530442 340.245218 275.534915 340.245218Z" fill="#e31d02" /><path d="M7.811408 710.344371l37.220716 0c79.615269-69.246107 100.428294-167.912267 100.428294-167.912267L73.536318 542.432103C64.81468 612.251262 35.354718 671.093415 7.811408 710.344371z" fill="#e31d02" /><path d="M339.920318 542.432103c0 0 20.695345 98.66616 100.310613 167.912267l37.298488 0c-27.581172-39.250956-57.002248-98.0532-65.762773-167.912267L339.920318 542.432103z" fill="#e31d02" /><path d="M546.546306 710.344371l37.22481 0c79.615269-69.246107 100.349499-167.912267 100.349499-167.912267l-71.810512 0C603.513762 612.251262 574.093708 671.093415 546.546306 710.344371z" fill="#e31d02" /><path d="M878.620423 542.432103c0 0 20.73423 98.66616 100.349499 167.912267l37.259602 0c-27.542286-39.250956-57.003272-98.0532-65.723887-167.912267L878.620423 542.432103z" fill="#e31d02" /><path d="M711.663924 340.245218l12.894681-27.698852-65.880453 0-12.929474 27.698852-99.314936 0 0 36.420491 82.290191 0-66.185398 141.626601 190.56008 0 0 111.518886c0 21.538549-3.557012 30.873148-10.674107 37.07336-7.190773 6.235005-18.055215 9.525957-32.516578 9.792017l0 34.777061c37.529755-1.187035 65.037249-9.295714 82.520435-24.485671 17.407462-15.108093 26.241664-38.369889 26.241664-69.472258l0-99.202373 181.491541 0 0-1.760087 0-34.660404L818.669006 481.872842 818.669006 403.635967l-65.572438 0 0 78.236875L646.248052 481.872842l48.659233-105.207134 321.32224 0 0-36.420491L711.663924 340.245218z" fill="#e31d02" /></svg>